<?xml version="1.0" encoding="UTF-8"?>
<!DOCTYPE svg PUBLIC "-//W3C//DTD SVG 1.1//EN" "http://www.w3.org/Graphics/SVG/1.1/DTD/svg11.dtd">
<svg xmlns="http://www.w3.org/2000/svg" version="1.1" width="400px" height="400px" style="shape-rendering:geometricPrecision; text-rendering:geometricPrecision; image-rendering:optimizeQuality; fill-rule:evenodd; clip-rule:evenodd" xmlns:xlink="http://www.w3.org/1999/xlink">
<g><path style="opacity:1" fill="#fefefe" d="M -0.5,-0.5 C 132.833,-0.5 266.167,-0.5 399.5,-0.5C 399.5,132.833 399.5,266.167 399.5,399.5C 266.167,399.5 132.833,399.5 -0.5,399.5C -0.5,266.167 -0.5,132.833 -0.5,-0.5 Z"/></g>
<g><path style="opacity:1" fill="#c0384b" d="M 229.5,63.5 C 229.167,63.5 228.833,63.5 228.5,63.5C 227.71,64.6085 227.21,65.9419 227,67.5C 226.5,91.4977 226.333,115.498 226.5,139.5C 226.5,139.833 226.5,140.167 226.5,140.5C 223.057,142.43 219.391,143.93 215.5,145C 226.828,145.5 238.162,145.667 249.5,145.5C 249.457,150.597 247.957,155.264 245,159.5C 241.833,162.667 238.667,165.833 235.5,169C 231.599,170.784 227.599,172.284 223.5,173.5C 226.456,176.051 228.956,179.051 231,182.5C 237.852,198.461 236.519,213.794 227,228.5C 213.678,243.157 197.512,247.991 178.5,243C 169.207,237.796 165.707,229.963 168,219.5C 175.584,208.911 183.251,208.911 191,219.5C 192.327,229.016 188.161,234.349 178.5,235.5C 178.709,236.086 179.043,236.586 179.5,237C 192.239,239.543 201.405,235.043 207,223.5C 207.667,217.5 207.667,211.5 207,205.5C 206.333,204.167 205.667,202.833 205,201.5C 195.024,191.191 184.691,181.191 174,171.5C 165.886,160.455 163.22,148.122 166,134.5C 168.105,128.073 171.439,122.406 176,117.5C 183,110.833 190,104.167 197,97.5C 200.441,90.0541 198.275,85.3874 190.5,83.5C 180.029,86.7415 169.529,89.7415 159,92.5C 154.506,92.0001 151.34,89.6667 149.5,85.5C 169.858,77.1608 180.025,61.8275 180,39.5C 192.777,35.0384 205.277,35.8717 217.5,42C 224.268,47.7101 228.268,54.8768 229.5,63.5 Z"/></g>
<g><path style="opacity:1" fill="#fdeeee" d="M 181.5,67.5 C 187.158,66.6794 188.825,68.846 186.5,74C 180.741,75.1387 179.074,72.972 181.5,67.5 Z"/></g>
<g><path style="opacity:1" fill="#dc3545" d="M 228.5,63.5 C 229.157,89.1887 228.491,114.522 226.5,139.5C 226.333,115.498 226.5,91.4977 227,67.5C 227.21,65.9419 227.71,64.6085 228.5,63.5 Z"/></g>
<g><path style="opacity:1" fill="#901219" d="M 228.5,63.5 C 228.833,63.5 229.167,63.5 229.5,63.5C 229.5,89.1667 229.5,114.833 229.5,140.5C 228.5,140.5 227.5,140.5 226.5,140.5C 226.5,140.167 226.5,139.833 226.5,139.5C 228.491,114.522 229.157,89.1887 228.5,63.5 Z"/></g>
<g><path style="opacity:1" fill="#febacb" d="M 101.5,278.5 C 94.6457,278.176 87.979,278.509 81.5,279.5C 80.9569,279.44 80.6236,279.107 80.5,278.5C 87.656,277.181 94.656,277.181 101.5,278.5 Z"/></g>
<g><path style="opacity:1" fill="#c13b48" d="M 152.5,328.5 C 148.833,329.833 145.167,329.833 141.5,328.5C 141.667,313.83 141.5,299.163 141,284.5C 140.308,283.975 139.808,283.308 139.5,282.5C 143.451,281.461 147.285,280.128 151,278.5C 151.168,295.338 151.668,312.005 152.5,328.5 Z"/></g>
<g><path style="opacity:1" fill="#fb9ea4" d="M 168.5,278.5 C 169.167,286.167 169.833,293.833 170.5,301.5C 170.44,302.043 170.107,302.376 169.5,302.5C 168.502,294.528 168.169,286.528 168.5,278.5 Z"/></g>
<g><path style="opacity:1" fill="#bb394a" d="M 290.5,298.5 C 301.203,296.44 309.037,300.107 314,309.5C 314.238,324.589 306.738,331.423 291.5,330C 281.9,325.886 278.4,318.719 281,308.5C 283.624,304.615 286.79,301.281 290.5,298.5 Z"/></g>
<g><path style="opacity:1" fill="#bf394b" d="M 65.5,282.5 C 64.508,289.982 64.1746,297.648 64.5,305.5C 65.791,305.737 66.791,305.404 67.5,304.5C 73.5021,302.833 79.5021,301.166 85.5,299.5C 85.6662,293.491 85.4995,287.491 85,281.5C 84.1841,280.177 83.0174,279.511 81.5,279.5C 87.979,278.509 94.6457,278.176 101.5,278.5C 99.9087,279.219 98.4087,280.219 97,281.5C 96.3333,296.5 96.3333,311.5 97,326.5C 97.7083,327.381 98.5416,328.047 99.5,328.5C 93.8333,329.833 88.1667,329.833 82.5,328.5C 83.4959,328.586 84.3292,328.252 85,327.5C 85.4997,319.173 85.6664,310.84 85.5,302.5C 78.9911,304.307 72.4911,306.307 66,308.5C 65.3333,314.833 65.3333,321.167 66,327.5C 66.3826,328.056 66.8826,328.389 67.5,328.5C 62.1667,329.833 56.8333,329.833 51.5,328.5C 52.4584,328.047 53.2917,327.381 54,326.5C 54.6667,311.5 54.6667,296.5 54,281.5C 52.8289,280.107 51.3289,279.273 49.5,279C 56.1667,278.333 62.8333,278.333 69.5,279C 67.0898,279.057 65.7565,280.224 65.5,282.5 Z"/></g>
<g><path style="opacity:1" fill="#f1989f" d="M 65.5,282.5 C 64.8701,290.243 65.5367,297.576 67.5,304.5C 66.791,305.404 65.791,305.737 64.5,305.5C 64.1746,297.648 64.508,289.982 65.5,282.5 Z"/></g>
<g><path style="opacity:1" fill="#fbf5f6" d="M 294.5,299.5 C 299.539,299.032 302.372,301.365 303,306.5C 303.667,312.167 303.667,317.833 303,323.5C 299.739,329.625 296.072,329.958 292,324.5C 289.304,315.68 290.137,307.347 294.5,299.5 Z"/></g>
<g><path style="opacity:1" fill="#bf3747" d="M 168.5,278.5 C 168.169,286.528 168.502,294.528 169.5,302.5C 170.107,302.376 170.44,302.043 170.5,301.5C 186.09,295.24 192.924,300.573 191,317.5C 186.56,327.806 178.726,331.973 167.5,330C 164.804,329.235 162.304,328.068 160,326.5C 159.667,312.5 159.333,298.5 159,284.5C 158.308,283.975 157.808,283.308 157.5,282.5C 161.044,280.764 164.71,279.431 168.5,278.5 Z"/></g>
<g><path style="opacity:1" fill="#faf7f7" d="M 169.5,303.5 C 174.951,303.108 178.784,305.442 181,310.5C 182.222,316.415 181.389,321.915 178.5,327C 175.165,329.291 172.332,328.791 170,325.5C 169.5,318.174 169.334,310.841 169.5,303.5 Z"/></g>
<g><path style="opacity:1" fill="#bd3446" d="M 239.5,328.5 C 235.833,329.833 232.167,329.833 228.5,328.5C 229.655,321.345 229.822,314.012 229,306.5C 228.5,305.5 228,304.5 227.5,303.5C 230.858,301.669 234.358,300.002 238,298.5C 238.333,300.5 238.667,302.5 239,304.5C 241.143,301.675 243.81,299.675 247,298.5C 249.833,298.667 251.333,300.167 251.5,303C 251.561,304.711 250.894,306.044 249.5,307C 246.582,307.716 243.915,307.216 241.5,305.5C 240.558,305.608 239.725,305.941 239,306.5C 238.178,314.012 238.345,321.345 239.5,328.5 Z"/></g>
<g><path style="opacity:1" fill="#be384b" d="M 264.5,292.5 C 266.308,293.918 266.975,295.918 266.5,298.5C 269.833,298.5 273.167,298.5 276.5,298.5C 276.5,299.5 276.5,300.5 276.5,301.5C 273.167,301.5 269.833,301.5 266.5,301.5C 266.334,308.508 266.5,315.508 267,322.5C 279.808,320.977 280.642,323.477 269.5,330C 264.788,331.443 260.955,330.277 258,326.5C 257.667,317.5 257.333,308.5 257,299.5C 256.308,298.975 255.808,298.308 255.5,297.5C 258.593,295.979 261.593,294.313 264.5,292.5 Z"/></g>
<g><path style="opacity:1" fill="#bd3a4c" d="M 207.5,298.5 C 210.85,298.335 214.183,298.502 217.5,299C 221.917,301.16 223.251,304.494 221.5,309C 216.177,309.499 210.844,309.666 205.5,309.5C 204.768,320.458 209.768,324.958 220.5,323C 221.426,321.42 222.426,320.92 223.5,321.5C 218.924,329.085 212.258,331.585 203.5,329C 196.306,324.423 193.806,317.923 196,309.5C 198.437,304.226 202.271,300.56 207.5,298.5 Z"/></g>
<g><path style="opacity:1" fill="#f8f6f7" d="M 209.5,299.5 C 213.994,300.159 215.661,302.825 214.5,307.5C 211.5,307.5 208.5,307.5 205.5,307.5C 206.287,304.592 207.62,301.926 209.5,299.5 Z"/></g>
<g><path style="opacity:1" fill="#be384b" d="M 348.5,328.5 C 344.833,329.833 341.167,329.833 337.5,328.5C 337.666,321.492 337.5,314.492 337,307.5C 335.475,304.23 333.142,303.23 330,304.5C 329.177,312.677 329.344,320.677 330.5,328.5C 326.5,329.833 322.5,329.833 318.5,328.5C 319.656,321.011 319.822,313.345 319,305.5C 318.308,304.975 317.808,304.308 317.5,303.5C 320.807,301.276 324.473,299.609 328.5,298.5C 329.167,299.833 329.833,301.167 330.5,302.5C 335.426,297.674 340.593,297.341 346,301.5C 347.111,310.576 347.944,319.576 348.5,328.5 Z"/></g>
<g><path style="opacity:1" fill="#bd3a4a" d="M 114.5,298.5 C 124.033,296.851 131.2,300.184 136,308.5C 137.462,321.369 131.795,328.702 119,330.5C 106.004,328.827 100.671,321.494 103,308.5C 105.818,303.839 109.651,300.505 114.5,298.5 Z"/></g>
<g><path style="opacity:1" fill="#fbf7f7" d="M 117.5,299.5 C 121.575,299.399 124.075,301.399 125,305.5C 125.667,311.5 125.667,317.5 125,323.5C 120.736,331.553 117.069,331.22 114,322.5C 113.333,316.167 113.333,309.833 114,303.5C 115.032,301.973 116.199,300.64 117.5,299.5 Z"/></g>
<g><path style="opacity:1" fill="#d59a9e" d="M 51.5,328.5 C 56.8333,329.833 62.1667,329.833 67.5,328.5C 68.3764,328.369 69.0431,328.702 69.5,329.5C 62.8333,330.833 56.1667,330.833 49.5,329.5C 49.9569,328.702 50.6236,328.369 51.5,328.5 Z"/></g>
<g><path style="opacity:1" fill="#da9fa1" d="M 82.5,328.5 C 88.1667,329.833 93.8333,329.833 99.5,328.5C 100.376,328.369 101.043,328.702 101.5,329.5C 94.5,330.833 87.5,330.833 80.5,329.5C 80.9569,328.702 81.6236,328.369 82.5,328.5 Z"/></g>
<g><path style="opacity:1" fill="#dba3a8" d="M 141.5,328.5 C 145.167,329.833 148.833,329.833 152.5,328.5C 153.376,328.369 154.043,328.702 154.5,329.5C 149.5,330.833 144.5,330.833 139.5,329.5C 139.957,328.702 140.624,328.369 141.5,328.5 Z"/></g>
<g><path style="opacity:1" fill="#d59ba1" d="M 228.5,328.5 C 232.167,329.833 235.833,329.833 239.5,328.5C 240.675,328.281 241.675,328.614 242.5,329.5C 237.167,330.833 231.833,330.833 226.5,329.5C 226.957,328.702 227.624,328.369 228.5,328.5 Z"/></g>
<g><path style="opacity:1" fill="#d9a0a4" d="M 318.5,328.5 C 322.5,329.833 326.5,329.833 330.5,328.5C 331.043,328.56 331.376,328.893 331.5,329.5C 326.833,330.833 322.167,330.833 317.5,329.5C 317.624,328.893 317.957,328.56 318.5,328.5 Z"/></g>
<g><path style="opacity:1" fill="#d89ea2" d="M 337.5,328.5 C 341.167,329.833 344.833,329.833 348.5,328.5C 349.043,328.56 349.376,328.893 349.5,329.5C 344.833,330.833 340.167,330.833 335.5,329.5C 335.957,328.702 336.624,328.369 337.5,328.5 Z"/></g>
<g><path style="opacity:1" fill="#a2424b" d="M 142.5,346.5 C 146.226,346.177 149.893,346.511 153.5,347.5C 150.572,348.484 147.572,348.817 144.5,348.5C 144.5,350.167 144.5,351.833 144.5,353.5C 153.833,354.167 153.833,354.833 144.5,355.5C 144.5,357.167 144.5,358.833 144.5,360.5C 147.572,360.183 150.572,360.516 153.5,361.5C 149.893,362.489 146.226,362.823 142.5,362.5C 142.5,357.167 142.5,351.833 142.5,346.5 Z"/></g>
<g><path style="opacity:1" fill="#a12f36" d="M 249.5,347.5 C 246.713,348.477 243.713,348.81 240.5,348.5C 240.5,350.167 240.5,351.833 240.5,353.5C 249.833,354.167 249.833,354.833 240.5,355.5C 241.01,358.388 240.344,360.721 238.5,362.5C 238.5,357.5 238.5,352.5 238.5,347.5C 242.167,347.5 245.833,347.5 249.5,347.5 Z"/></g>
<g><path style="opacity:1" fill="#a92b40" d="M 163.5,348.5 C 163.897,347.475 164.563,347.308 165.5,348C 166.956,349.745 168.289,351.578 169.5,353.5C 170.711,351.578 172.044,349.745 173.5,348C 174.332,347.312 174.998,347.479 175.5,348.5C 171.863,352.443 169.863,357.11 169.5,362.5C 169.102,357.049 167.102,352.382 163.5,348.5 Z"/></g>
<g><path style="opacity:1" fill="#f0acb1" d="M 249.5,347.5 C 245.833,347.5 242.167,347.5 238.5,347.5C 238.5,352.5 238.5,357.5 238.5,362.5C 237.512,357.36 237.179,352.026 237.5,346.5C 241.702,346.183 245.702,346.517 249.5,347.5 Z"/></g>
<g><path style="opacity:1" fill="#f0a7b1" d="M 281.5,347.5 C 277.486,347.334 273.486,347.501 269.5,348C 271.134,348.494 272.801,348.66 274.5,348.5C 274.5,353.167 274.5,357.833 274.5,362.5C 273.515,358.366 273.182,354.032 273.5,349.5C 271.833,349.5 270.167,349.5 268.5,349.5C 268.5,348.5 268.5,347.5 268.5,346.5C 273.032,346.182 277.366,346.515 281.5,347.5 Z"/></g>
<g><path style="opacity:1" fill="#d2656b" d="M 77.5,347.5 C 75.1667,347.5 72.8333,347.5 70.5,347.5C 70.5,352.5 70.5,357.5 70.5,362.5C 69.5119,357.36 69.1786,352.026 69.5,346.5C 72.3854,346.194 75.0521,346.527 77.5,347.5 Z"/></g>
<g><path style="opacity:1" fill="#a02d36" d="M 77.5,347.5 C 79.371,347.859 80.871,348.859 82,350.5C 84.1069,360.226 80.2736,364.226 70.5,362.5C 70.5,357.5 70.5,352.5 70.5,347.5C 72.8333,347.5 75.1667,347.5 77.5,347.5 Z"/></g>
<g><path style="opacity:1" fill="#fbf7f8" d="M 77.5,349.5 C 80.3324,351.407 81.1657,354.073 80,357.5C 78.195,360.039 75.695,361.039 72.5,360.5C 72.5,356.833 72.5,353.167 72.5,349.5C 74.1667,349.5 75.8333,349.5 77.5,349.5 Z"/></g>
<g><path style="opacity:1" fill="#fdcfd8" d="M 119.5,362.5 C 118.833,342.5 118.167,342.5 117.5,362.5C 116.511,357.025 116.178,351.358 116.5,345.5C 117.833,345.5 119.167,345.5 120.5,345.5C 120.822,351.358 120.489,357.025 119.5,362.5 Z"/></g>
<g><path style="opacity:1" fill="#b0132d" d="M 119.5,362.5 C 118.833,362.5 118.167,362.5 117.5,362.5C 118.167,342.5 118.833,342.5 119.5,362.5 Z"/></g>
<g><path style="opacity:1" fill="#8f232b" d="M 281.5,347.5 C 280.081,348.451 278.415,348.784 276.5,348.5C 277.103,353.619 276.436,358.285 274.5,362.5C 274.5,357.833 274.5,353.167 274.5,348.5C 272.801,348.66 271.134,348.494 269.5,348C 273.486,347.501 277.486,347.334 281.5,347.5 Z"/></g>
<g><path style="opacity:1" fill="#f0a9af" d="M 77.5,349.5 C 75.8333,349.5 74.1667,349.5 72.5,349.5C 72.5,353.167 72.5,356.833 72.5,360.5C 71.5166,356.702 71.1832,352.702 71.5,348.5C 73.7354,348.205 75.7354,348.539 77.5,349.5 Z"/></g>
<g><path style="opacity:1" fill="#e2a3a4" d="M 98.5,347.5 C 94.8333,347.5 91.1667,347.5 87.5,347.5C 87.5,352.5 87.5,357.5 87.5,362.5C 86.5119,357.36 86.1786,352.026 86.5,346.5C 90.7016,346.183 94.7016,346.517 98.5,347.5 Z"/></g>
<g><path style="opacity:1" fill="#a22834" d="M 219.5,356.5 C 218.737,355.732 217.737,355.232 216.5,355C 218.708,354.809 220.708,354.309 222.5,353.5C 223.833,352.167 223.833,350.833 222.5,349.5C 220.393,348.532 218.059,348.198 215.5,348.5C 215.5,353.167 215.5,357.833 215.5,362.5C 214.513,357.695 214.179,352.695 214.5,347.5C 217.518,347.335 220.518,347.502 223.5,348C 226.053,350.945 226.053,353.945 223.5,357C 224.484,358.657 225.484,360.323 226.5,362C 225.365,362.749 224.365,362.583 223.5,361.5C 222.388,359.581 221.054,357.914 219.5,356.5 Z"/></g>
<g><path style="opacity:1" fill="#f3f3f2" d="M 222.5,349.5 C 223.833,350.833 223.833,352.167 222.5,353.5C 220.5,353.5 218.5,353.5 216.5,353.5C 216.5,352.167 216.5,350.833 216.5,349.5C 218.5,349.5 220.5,349.5 222.5,349.5 Z"/></g>
<g><path style="opacity:1" fill="#da8388" d="M 208.5,359.5 C 208.666,355.486 208.499,351.486 208,347.5C 207.823,351.356 207.323,355.023 206.5,358.5C 206.5,354.5 206.5,350.5 206.5,346.5C 207.5,346.5 208.5,346.5 209.5,346.5C 209.818,351.032 209.485,355.366 208.5,359.5 Z"/></g>
<g><path style="opacity:1" fill="#ac3039" d="M 311.5,347.5 C 313.913,348.68 314.913,350.68 314.5,353.5C 313.188,354.145 312.188,355.145 311.5,356.5C 312.752,358.001 313.752,359.668 314.5,361.5C 314.043,362.298 313.376,362.631 312.5,362.5C 311.407,358.917 309.074,356.917 305.5,356.5C 305.975,359.082 305.308,361.082 303.5,362.5C 303.5,357.5 303.5,352.5 303.5,347.5C 306.167,347.5 308.833,347.5 311.5,347.5 Z"/></g>
<g><path style="opacity:1" fill="#f49fa3" d="M 310.5,349.5 C 308.833,349.5 307.167,349.5 305.5,349.5C 305.5,350.833 305.5,352.167 305.5,353.5C 307.167,353.5 308.833,353.5 310.5,353.5C 308.735,354.461 306.735,354.795 304.5,354.5C 304.5,352.5 304.5,350.5 304.5,348.5C 306.735,348.205 308.735,348.539 310.5,349.5 Z"/></g>
<g><path style="opacity:1" fill="#f5f4f3" d="M 310.5,349.5 C 313.167,350.833 313.167,352.167 310.5,353.5C 308.833,353.5 307.167,353.5 305.5,353.5C 305.5,352.167 305.5,350.833 305.5,349.5C 307.167,349.5 308.833,349.5 310.5,349.5 Z"/></g>
<g><path style="opacity:1" fill="#f0dcde" d="M 330.5,347.5 C 326.833,347.5 323.167,347.5 319.5,347.5C 319.5,352.5 319.5,357.5 319.5,362.5C 317.185,362.816 314.851,362.816 312.5,362.5C 313.376,362.631 314.043,362.298 314.5,361.5C 313.752,359.668 312.752,358.001 311.5,356.5C 312.188,355.145 313.188,354.145 314.5,353.5C 315.105,355.026 316.271,356.026 318,356.5C 318.498,353.183 318.665,349.85 318.5,346.5C 322.702,346.183 326.702,346.517 330.5,347.5 Z"/></g>
<g><path style="opacity:1" fill="#90141c" d="M 98.5,347.5 C 95.7131,348.477 92.7131,348.81 89.5,348.5C 88.5151,352.634 88.1818,356.968 88.5,361.5C 91.8333,361.5 95.1667,361.5 98.5,361.5C 95.0381,362.482 91.3714,362.815 87.5,362.5C 87.5,357.5 87.5,352.5 87.5,347.5C 91.1667,347.5 94.8333,347.5 98.5,347.5 Z"/></g>
<g><path style="opacity:1" fill="#c74f5a" d="M 89.5,348.5 C 89.5,350.167 89.5,351.833 89.5,353.5C 92.3878,352.99 94.7211,353.656 96.5,355.5C 94.1667,355.5 91.8333,355.5 89.5,355.5C 89.5,357.167 89.5,358.833 89.5,360.5C 92.7131,360.19 95.7131,360.523 98.5,361.5C 95.1667,361.5 91.8333,361.5 88.5,361.5C 88.1818,356.968 88.5151,352.634 89.5,348.5 Z"/></g>
<g><path style="opacity:1" fill="#b53744" d="M 124.5,346.5 C 125.822,346.33 126.989,346.663 128,347.5C 130.347,351.532 132.68,355.532 135,359.5C 135.173,355.459 135.673,351.459 136.5,347.5C 137.494,352.456 137.827,357.456 137.5,362.5C 136.178,362.67 135.011,362.337 134,361.5C 131.667,357.833 129.333,354.167 127,350.5C 126.827,354.541 126.327,358.541 125.5,362.5C 124.505,357.208 124.172,351.875 124.5,346.5 Z"/></g>
<g><path style="opacity:1" fill="#af3a3e" d="M 330.5,347.5 C 327.713,348.477 324.713,348.81 321.5,348.5C 321.5,350.167 321.5,351.833 321.5,353.5C 330.833,354.167 330.833,354.833 321.5,355.5C 321.5,357.167 321.5,358.833 321.5,360.5C 324.572,360.183 327.572,360.516 330.5,361.5C 326.893,362.489 323.226,362.823 319.5,362.5C 319.5,357.5 319.5,352.5 319.5,347.5C 323.167,347.5 326.833,347.5 330.5,347.5 Z"/></g>
<g><path style="opacity:1" fill="#d17f87" d="M 222.5,349.5 C 220.5,349.5 218.5,349.5 216.5,349.5C 216.5,350.833 216.5,352.167 216.5,353.5C 218.5,353.5 220.5,353.5 222.5,353.5C 220.708,354.309 218.708,354.809 216.5,355C 217.737,355.232 218.737,355.732 219.5,356.5C 218.5,356.5 217.5,356.5 216.5,356.5C 216.795,358.735 216.461,360.735 215.5,362.5C 215.5,357.833 215.5,353.167 215.5,348.5C 218.059,348.198 220.393,348.532 222.5,349.5 Z"/></g>
<g><path style="opacity:1" fill="#b88b90" d="M 311.5,347.5 C 308.833,347.5 306.167,347.5 303.5,347.5C 303.5,352.5 303.5,357.5 303.5,362.5C 302.512,357.36 302.179,352.026 302.5,346.5C 305.713,346.19 308.713,346.523 311.5,347.5 Z"/></g>
<g><path style="opacity:1" fill="#b53f47" d="M 180.5,347.5 C 191.484,346.296 194.817,350.796 190.5,361C 183.201,364.568 178.868,362.401 177.5,354.5C 177.695,351.782 178.695,349.449 180.5,347.5 Z"/></g>
<g><path style="opacity:1" fill="#fbf5f5" d="M 182.5,348.5 C 185.044,348.104 187.211,348.771 189,350.5C 190.004,353.993 189.504,357.159 187.5,360C 180.999,360.812 178.832,357.979 181,351.5C 181.513,350.473 182.013,349.473 182.5,348.5 Z"/></g>
<g><path style="opacity:1" fill="#a73138" d="M 206.5,358.5 C 207.323,355.023 207.823,351.356 208,347.5C 208.499,351.486 208.666,355.486 208.5,359.5C 208.047,360.458 207.381,361.292 206.5,362C 198.736,364.404 195.403,361.57 196.5,353.5C 196.833,351.5 197.167,349.5 197.5,347.5C 198.325,351.122 198.825,354.789 199,358.5C 201.621,361.14 204.121,361.14 206.5,358.5 Z"/></g>
<g><path style="opacity:1" fill="#ad313a" d="M 285.5,347.5 C 287.268,351.044 288.102,355.044 288,359.5C 290.333,360.833 292.667,360.833 295,359.5C 295.173,355.459 295.673,351.459 296.5,347.5C 297.661,351.795 297.828,356.129 297,360.5C 293.899,362.72 290.565,363.053 287,361.5C 285.621,356.964 285.121,352.297 285.5,347.5 Z"/></g>
<g><path style="opacity:1" fill="#b23d46" d="M 252.5,346.5 C 253.5,346.5 254.5,346.5 255.5,346.5C 255.334,350.846 255.501,355.179 256,359.5C 258.592,360.982 260.925,360.648 263,358.5C 263.175,354.789 263.675,351.122 264.5,347.5C 265.66,351.459 265.827,355.459 265,359.5C 261.045,363.489 257.045,363.489 253,359.5C 252.501,355.179 252.334,350.846 252.5,346.5 Z"/></g>
<g><path style="opacity:1" fill="#fce5ea" d="M 111.5,355.5 C 110.081,356.451 108.415,356.784 106.5,356.5C 106.5,358.833 106.5,361.167 106.5,363.5C 105.167,363.5 103.833,363.5 102.5,363.5C 102.5,364.5 102.5,365.5 102.5,366.5C 97.5399,364.678 92.5399,363.345 87.5,362.5C 91.3714,362.815 95.0381,362.482 98.5,361.5C 95.7131,360.523 92.7131,360.19 89.5,360.5C 89.5,358.833 89.5,357.167 89.5,355.5C 91.8333,355.5 94.1667,355.5 96.5,355.5C 94.7354,356.461 92.7354,356.795 90.5,356.5C 90.5,357.5 90.5,358.5 90.5,359.5C 94.0644,359.849 97.3978,359.183 100.5,357.5C 99.1451,356.325 99.3117,355.325 101,354.5C 101.497,351.854 101.664,349.187 101.5,346.5C 105.833,346.5 110.167,346.5 114.5,346.5C 114.897,351.959 114.397,357.292 113,362.5C 112.504,360.965 112.67,359.465 113.5,358C 113.361,356.699 112.695,355.866 111.5,355.5 Z"/></g>
<g><path style="opacity:1" fill="#a22e39" d="M 111.5,355.5 C 109.167,355.5 106.833,355.5 104.5,355.5C 104.808,357.924 104.474,360.257 103.5,362.5C 102.506,357.544 102.173,352.544 102.5,347.5C 106.182,347.335 109.848,347.501 113.5,348C 110.518,348.498 107.518,348.665 104.5,348.5C 104.5,350.167 104.5,351.833 104.5,353.5C 107.388,352.99 109.721,353.656 111.5,355.5 Z"/></g>
</svg>
